<svg viewBox="0 0 800 800" xmlns="http://www.w3.org/2000/svg"><path d="M619.3721812223906,599.308242814511 L568.103557838063,571.1178108983938 M231.88405088174653,823.0246191744668 L180.63562073991935,791.8790455555934 M619.3721812223906,599.308242814511 L231.88405088174653,823.0246191744668 M568.103557838063,571.1178108983938 L180.63562073991935,791.8790455555934 M231.86141722927337,822.0184181826608 L180.60733954262017,790.8761529728763 M231.88405088174653,823.0246191744668 L231.86141722927337,822.0184181826608 M180.63562073991935,791.8790455555934 L180.60733954262017,790.8761529728763 M339.1756095252034,150.70653557553567 L284.4614951758809,122.72713235245544 M231.86141722927337,822.0184181826608 L339.1756095252034,150.70653557553567 M180.60733954262017,790.8761529728763 L284.4614951758809,122.72713235245544 M519.6650273344712,60.55948371117324 L464.9415561957197,33.84972332116905 M339.1756095252034,150.70653557553567 L340.39784151377376,143.06855263729346 M340.39784151377376,143.06855263729346 L341.98226325173533,135.35507053339052 M341.98226325173533,135.35507053339052 L343.9228993306287,127.59764893115283 M343.9228993306287,127.59764893115283 L346.2122100323878,119.82833511454027 M346.2122100323878,119.82833511454027 L348.8411431678634,112.07932920712767 M348.8411431678634,112.07932920712767 L351.7991527612277,104.38259390862203 M351.7991527612277,104.38259390862203 L355.0742418021671,96.77022603689983 M355.0742418021671,96.77022603689983 L358.65303447862027,89.27368876006892 M358.65303447862027,89.27368876006892 L362.52079558094835,81.92412646153963 M362.52079558094835,81.92412646153963 L366.6615561026141,74.75213664653512 M366.6615561026141,74.75213664653512 L371.0581361452007,67.78738237725224 M371.0581361452007,67.78738237725224 L375.69224632905485,61.05880353731567 M375.69224632905485,61.05880353731567 L380.5445897208947,54.59405438492888 M380.5445897208947,54.59405438492888 L385.59492805773505,48.41987975725493 M385.59492805773505,48.41987975725493 L390.82220129469886,42.56155040673076 M390.82220129469886,42.56155040673076 L396.2046162142968,37.0430234995311 M396.2046162142968,37.0430234995311 L401.7197513498231,31.88667501226803 M401.7197513498231,31.88667501226803 L407.3446773435827,27.11324042746918 M407.3446773435827,27.11324042746918 L413.0560539492675,22.741911839323052 M413.0560539492675,22.741911839323052 L418.8302445529087,18.789794781033095 M418.8302445529087,18.789794781033095 L424.64343103363854,15.2724981032556 M424.64343103363854,15.2724981032556 L430.47171768132637,12.20346200939099 M430.47171768132637,12.20346200939099 L436.29124558621544,9.594272230492606 M436.29124558621544,9.594272230492606 L442.0782988495596,7.454487088049632 M442.0782988495596,7.454487088049632 L447.8094083859082,5.791749972664547 M447.8094083859082,5.791749972664547 L453.4614590555155,4.611410084743454 M453.4614590555155,4.611410084743454 L459.01178174233985,3.917136161663109 M459.01178174233985,3.917136161663109 L464.43825185456853,3.7102635285531846 M464.43825185456853,3.7102635285531846 L469.7193832652118,3.9902678305665518 M469.7193832652118,3.9902678305665518 L474.8344012653317,4.754617233983367 M474.8344012653317,4.754617233983367 L479.7633350862818,5.998755685818594 M479.7633350862818,5.998755685818594 L484.4870922975599,7.716303670974526 M484.4870922975599,7.716303670974526 L488.9875149819442,9.898848102905333 M488.9875149819442,9.898848102905333 L493.24746417466946,12.536413536284726 M493.24746417466946,12.536413536284726 L497.25085123263466,15.617052254894077 M497.25085123263466,15.617052254894077 L500.98270324862114,19.127319678666765 M500.98270324862114,19.127319678666765 L504.42922767520986,23.051983367269088 M504.42922767520986,23.051983367269088 L507.5778018143117,27.37439047659717 M507.5778018143117,27.37439047659717 L510.41706232762516,32.076573545136 M510.41706232762516,32.076573545136 L512.9368940646724,37.13892076841569 M512.9368940646724,37.13892076841569 L515.1284718203185,42.540850717861986 M515.1284718203185,42.540850717861986 L516.9842762634303,48.26039387312659 M516.9842762634303,48.26039387312659 L518.4980897921723,54.27453829337628 M518.4980897921723,54.27453829337628 L519.6650273344712,60.55948371117324 M284.4614951758809,122.72713235245544 L285.64393376926125,115.12790403934332 M285.64393376926125,115.12790403934332 L287.1890649737519,107.45535985258596 M287.1890649737519,107.45535985258596 L289.09107341435146,99.74088554795804 M289.09107341435146,99.74088554795804 L291.34257920048526,92.01634364184451 M291.34257920048526,92.01634364184451 L293.93468804113536,84.31374052439224 M293.93468804113536,84.31374052439224 L296.85700778262674,76.6648381869615 M296.85700778262674,76.6648381869615 L300.09769334286494,69.10152459627261 M300.09769334286494,69.10152459627261 L303.64351476303733,61.65504983136498 M303.64351476303733,61.65504983136498 L307.4798783689385,54.356339918275125 M307.4798783689385,54.356339918275125 L311.5909513259637,47.23577057011994 M311.5909513259637,47.23577057011994 L315.95968231037216,40.32278164438702 M315.95968231037216,40.32278164438702 L320.567904251165,33.64608820139239 M320.567904251165,33.64608820139239 L325.396433207619,27.233121204833935 M325.396433207619,27.233121204833935 L330.42513673864136,21.110402594297625 M330.42513673864136,21.110402594297625 L335.6330504096794,15.302983827619187 M335.6330504096794,15.302983827619187 L340.9984673717998,9.83460624973469 M340.9984673717998,9.83460624973469 L346.49904187293436,4.727435279627571 M346.49904187293436,4.727435279627571 L352.1119094227395,0.0020020329873773335 M352.1119094227395,0.0020020329873773335 L357.8137844315335,-4.322699471356373 M357.8137844315335,-4.322699471356373 L363.58107178645463,-8.229752533051396 M363.58107178645463,-8.229752533051396 L369.3899852094266,-11.703729918395936 M369.3899852094266,-11.703729918395936 L375.2166474897665,-14.73136242495417 M375.2166474897665,-14.73136242495417 L381.0372068323563,-17.30122559160708 M381.0372068323563,-17.30122559160708 L386.8279422543687,-19.403911461794905 M386.8279422543687,-19.403911461794905 L392.56536821030767,-21.031916212512783 M392.56536821030767,-21.031916212512783 L398.2263397731752,-22.180017389972306 M398.2263397731752,-22.180017389972306 L403.7881484048151,-22.84466256974548 M403.7881484048151,-22.84466256974548 L409.2286169628546,-23.02461917446675 M409.2286169628546,-23.02461917446675 L414.52619658747113,-22.720502541208987 M414.52619658747113,-22.720502541208987 L419.66003901768823,-21.934922931400024 M419.66003901768823,-21.934922931400024 L424.61008930059194,-20.672501967188964 M424.61008930059194,-20.672501967188964 L429.3571615928487,-18.939672597982963 M429.3571615928487,-18.939672597982963 L433.8829943548822,-16.74488825048178 M433.8829943548822,-16.74488825048178 L438.1703378134987,-14.098153446612798 M438.1703378134987,-14.098153446612798 L442.202983169109,-11.011432008505665 M442.202983169109,-11.011432008505665 L445.9658310376494,-7.498173568403558 M445.9658310376494,-7.498173568403558 L449.44495471719824,-3.5736031911403074 M449.44495471719824,-3.5736031911403074 L452.6275918923481,0.745644297520073 M452.6275918923481,0.745644297520073 L455.5022351589223,5.441629937073628 M455.5022351589223,5.441629937073628 L458.0586190732654,10.49478212086757 M458.0586190732654,10.49478212086757 L460.2877660654898,15.884568554266025 M460.2877660654898,15.884568554266025 L462.1820001629527,21.589079550346753 M462.1820001629527,21.589079550346753 L463.73494497457847,27.585372160563907 M463.73494497457847,27.585372160563907 L464.9415561957197,33.84972332116905 M619.3926604573799,598.3268763923011 L568.1183824653958,570.1397503307096 M519.6650273344712,60.55948371117324 L619.3926604573799,598.3268763923011 M464.9415561957197,33.84972332116905 L568.1183824653958,570.1397503307096 M619.3926604573799,598.3268763923011 L619.3721812223906,599.308242814511 M568.1183824653958,570.1397503307096 L568.103557838063,571.1178108983938" stroke="black"  stroke-width="4"  fill="red"/></svg>